<mxfile host="app.diagrams.net" modified="2021-06-01T02:39:03.044Z" agent="5.0 (Macintosh; Intel Mac OS X 10_14_3) AppleWebKit/537.36 (KHTML, like Gecko) Chrome/90.0.4430.212 Safari/537.36" etag="yIAvR3ixyqPsKhQNYqT-" version="14.6.11" type="github">
  <diagram id="jk84KoCiqGRbvonOO5nR" name="Page-1">
    <mxGraphModel dx="946" dy="490" grid="0" gridSize="10" guides="1" tooltips="1" connect="1" arrows="1" fold="1" page="1" pageScale="1" pageWidth="350" pageHeight="150" background="#EFF1F3" math="0" shadow="0">
      <root>
        <mxCell id="0" />
        <mxCell id="1" parent="0" />
        <mxCell id="XSbDL2rr6Gyu1OlXZJMn-2" value="&lt;font style=&quot;font-size: 36px&quot;&gt;&lt;font color=&quot;#4a919b&quot;&gt;127&amp;nbsp;&lt;/font&gt;.&amp;nbsp;&lt;font color=&quot;#c89932&quot;&gt;0&amp;nbsp;&lt;/font&gt;.&amp;nbsp;&lt;font color=&quot;#f19c99&quot;&gt;0&amp;nbsp;&lt;/font&gt;.&amp;nbsp;&lt;font color=&quot;#5a6eab&quot;&gt;1&amp;nbsp;&lt;/font&gt;&lt;/font&gt;" style="text;html=1;strokeColor=none;fillColor=none;align=center;verticalAlign=middle;whiteSpace=wrap;rounded=0;" parent="1" vertex="1">
          <mxGeometry x="42" y="19" width="262" height="50" as="geometry" />
        </mxCell>
        <mxCell id="XSbDL2rr6Gyu1OlXZJMn-3" value="&lt;font style=&quot;font-size: 12px ; background-color: rgb(239 , 241 , 243)&quot;&gt;&lt;font color=&quot;#4a919b&quot;&gt;01111111&lt;/font&gt;.&lt;font color=&quot;#c89932&quot;&gt;00000000&lt;/font&gt;.&lt;font color=&quot;#f19c99&quot;&gt;00000000&lt;/font&gt;.&lt;font color=&quot;#5a6eab&quot;&gt;00000001&lt;/font&gt;&lt;/font&gt;" style="text;html=1;strokeColor=none;fillColor=none;align=center;verticalAlign=middle;whiteSpace=wrap;rounded=0;" parent="1" vertex="1">
          <mxGeometry x="42" y="69" width="270" height="20" as="geometry" />
        </mxCell>
        <mxCell id="XSbDL2rr6Gyu1OlXZJMn-5" value="&lt;font&gt;&lt;font style=&quot;font-size: 14px&quot;&gt;回环地址&lt;br&gt;Loopback Address&lt;/font&gt;&lt;br&gt;&lt;/font&gt;" style="text;html=1;strokeColor=none;fillColor=none;align=center;verticalAlign=middle;whiteSpace=wrap;rounded=0;" parent="1" vertex="1">
          <mxGeometry x="76" y="112" width="198.75" height="20" as="geometry" />
        </mxCell>
      </root>
    </mxGraphModel>
  </diagram>
</mxfile>
